<svg width="150" height="150" viewBox="0 0 150 150" fill="none" xmlns="http://www.w3.org/2000/svg">
<circle cx="75" cy="75" r="75" fill="#8B50FF"/>
<circle cx="75" cy="75" r="75" fill="#8B50FF"/>
<path d="M67.7792 49H53.7042C53.2819 49 52.905 49.2654 52.7627 49.663L36.4785 95.163C36.2454 95.8144 36.7282 96.5 37.42 96.5H47.7399C48.1891 96.5 48.5832 96.2005 48.7034 95.7676L50.7966 88.2324C50.9168 87.7995 51.3109 87.5 51.7601 87.5H66.6844C67.3457 87.5 67.8249 88.1305 67.6479 88.7676L65.8521 95.2324C65.6751 95.8696 66.1543 96.5 66.8156 96.5H83.1844C83.8457 96.5 84.3249 95.8695 84.1479 95.2324L82.3521 88.7676C82.1751 88.1304 82.6543 87.5 83.3156 87.5H95.7792C96.2097 87.5 96.5918 87.7754 96.7279 88.1838L99.2721 95.8162C99.4082 96.2246 99.7903 96.5 100.221 96.5H113.052C113.751 96.5 114.235 95.7999 113.987 95.1456L96.7447 49.6456C96.5974 49.257 96.2251 49 95.8096 49H83.6706C83.2649 49 82.8994 49.2451 82.7455 49.6204L76.0222 66.0084C75.6703 66.8662 74.4416 66.8247 74.1483 65.9451L68.7279 49.6838C68.5918 49.2754 68.2097 49 67.7792 49Z" fill="white"/>
<path d="M58.9834 65.2914L54.7743 75.8143C54.6429 76.1427 54.8848 76.5 55.2385 76.5H62.815C63.1538 76.5 63.3945 76.1702 63.2912 75.8476L59.9239 65.3247C59.781 64.8782 59.1575 64.8561 58.9834 65.2914Z" fill="#8B50FF" stroke="#8B50FF"/>
<path d="M88.0777 65.7668L84.7194 75.8419C84.6114 76.1657 84.8524 76.5 85.1937 76.5H92.75C93.1068 76.5 93.3488 76.137 93.2115 75.8077L89.0136 65.7326C88.8358 65.306 88.2239 65.3283 88.0777 65.7668Z" fill="#8B50FF" stroke="#8B50FF"/>
</svg>
